<svg id="visual" viewBox="0 0 1920 1080" width="1920" height="1080" xmlns="http://www.w3.org/2000/svg" xmlns:xlink="http://www.w3.org/1999/xlink" version="1.1"><rect x="0" y="0" width="1920" height="1080" fill="#FFFFFF"></rect><path d="M0 476L45.7 468C91.3 460 182.7 444 274.2 404C365.7 364 457.3 300 548.8 274.8C640.3 249.7 731.7 263.3 823 292.3C914.3 321.3 1005.7 365.7 1097 362.7C1188.3 359.7 1279.7 309.3 1371.2 321.7C1462.7 334 1554.3 409 1645.8 403.5C1737.3 398 1828.7 312 1874.3 269L1920 226L1920 0L1874.3 0C1828.7 0 1737.3 0 1645.8 0C1554.3 0 1462.7 0 1371.2 0C1279.7 0 1188.3 0 1097 0C1005.7 0 914.3 0 823 0C731.7 0 640.3 0 548.8 0C457.3 0 365.7 0 274.2 0C182.7 0 91.3 0 45.7 0L0 0Z" fill="#0066FF" stroke-linecap="round" stroke-linejoin="miter"></path></svg>