<svg id="visual" viewBox="0 0 1920 1080" width="1920" height="1080" xmlns="http://www.w3.org/2000/svg" xmlns:xlink="http://www.w3.org/1999/xlink" version="1.1"><rect x="0" y="0" width="1920" height="1080" fill="#ffffff"></rect><path d="M0 333L64 292.3C128 251.7 256 170.3 384 129.7C512 89 640 89 768 180.7C896 272.3 1024 455.7 1152 561.5C1280 667.3 1408 695.7 1536 625.7C1664 555.7 1792 387.3 1856 303.2L1920 219L1920 0L1856 0C1792 0 1664 0 1536 0C1408 0 1280 0 1152 0C1024 0 896 0 768 0C640 0 512 0 384 0C256 0 128 0 64 0L0 0Z" fill="#0066FF" stroke-linecap="round" stroke-linejoin="miter"></path></svg>