<svg id="visual" viewBox="0 0 1920 1080" width="1920" height="1080" xmlns="http://www.w3.org/2000/svg" xmlns:xlink="http://www.w3.org/1999/xlink" version="1.1"><rect x="0" y="0" width="1920" height="1080" fill="#FFFFFF"></rect><path d="M0 479L24.7 429.5C49.3 380 98.7 281 147.8 235.5C197 190 246 198 295.2 221.2C344.3 244.3 393.7 282.7 443 291.7C492.3 300.7 541.7 280.3 590.8 296C640 311.7 689 363.3 738.2 392.7C787.3 422 836.7 429 886 405.5C935.3 382 984.7 328 1034 320.3C1083.3 312.7 1132.7 351.3 1181.8 365C1231 378.7 1280 367.3 1329.2 349.7C1378.3 332 1427.7 308 1477 299C1526.3 290 1575.7 296 1624.8 295.7C1674 295.3 1723 288.7 1772.2 316.2C1821.3 343.7 1870.7 405.3 1895.3 436.2L1920 467L1920 0L1895.3 0C1870.7 0 1821.3 0 1772.2 0C1723 0 1674 0 1624.8 0C1575.7 0 1526.3 0 1477 0C1427.7 0 1378.3 0 1329.2 0C1280 0 1231 0 1181.8 0C1132.7 0 1083.3 0 1034 0C984.7 0 935.3 0 886 0C836.7 0 787.3 0 738.2 0C689 0 640 0 590.8 0C541.7 0 492.3 0 443 0C393.7 0 344.3 0 295.2 0C246 0 197 0 147.8 0C98.7 0 49.3 0 24.7 0L0 0Z" fill="#B4D4FF" stroke-linecap="round" stroke-linejoin="miter"></path></svg>