<svg id="visual" viewBox="0 0 1920 1080" width="1920" height="1080" xmlns="http://www.w3.org/2000/svg" xmlns:xlink="http://www.w3.org/1999/xlink" version="1.1"><rect x="0" y="0" width="1920" height="1080" fill="#ffffff"></rect><path d="M0 315L64 293.3C128 271.7 256 228.3 384 223.8C512 219.3 640 253.7 768 297.2C896 340.7 1024 393.3 1152 367.3C1280 341.3 1408 236.7 1536 230.5C1664 224.3 1792 316.7 1856 362.8L1920 409L1920 0L1856 0C1792 0 1664 0 1536 0C1408 0 1280 0 1152 0C1024 0 896 0 768 0C640 0 512 0 384 0C256 0 128 0 64 0L0 0Z" fill="#0066FF" stroke-linecap="round" stroke-linejoin="miter"></path></svg>