<?xml version="1.0" encoding="UTF-8" standalone="no"?>
<svg
   width="300"
   height="80"
   viewBox="0 0 300 80"
   version="1.1"
   id="svg48"
   sodipodi:docname="logo-teal-titolo.svg"
   inkscape:version="1.2 (dc2aeda, 2022-05-15)"
   xmlns:inkscape="http://www.inkscape.org/namespaces/inkscape"
   xmlns:sodipodi="http://sodipodi.sourceforge.net/DTD/sodipodi-0.dtd"
   xmlns="http://www.w3.org/2000/svg"
   xmlns:svg="http://www.w3.org/2000/svg"
   xmlns:rdf="http://www.w3.org/1999/02/22-rdf-syntax-ns#"
   xmlns:cc="http://creativecommons.org/ns#"
   xmlns:dc="http://purl.org/dc/elements/1.1/">
  <defs
     id="defs52" />
  <sodipodi:namedview
     id="namedview50"
     pagecolor="#ffffff"
     bordercolor="#000000"
     borderopacity="0.25"
     inkscape:showpageshadow="2"
     inkscape:pageopacity="0.0"
     inkscape:pagecheckerboard="0"
     inkscape:deskcolor="#d1d1d1"
     showgrid="false"
     inkscape:zoom="4.1533333"
     inkscape:cx="145.66613"
     inkscape:cy="60.313002"
     inkscape:window-width="1390"
     inkscape:window-height="847"
     inkscape:window-x="3177"
     inkscape:window-y="215"
     inkscape:window-maximized="0"
     inkscape:current-layer="svg48" />
  <title
     id="title44">Artboard</title>
  <metadata
     id="metadata538">
    <rdf:RDF>
      <cc:Work
         rdf:about="">
        <dc:title>Artboard</dc:title>
      </cc:Work>
    </rdf:RDF>
  </metadata>
  <path
     d="m 27.600626,56.033578 -1.133,-5.28 v -31.474 h -6.542005 v 14.357 c -1.968,-2.27 -4.675,-3.6 -7.87,-3.6 -6.5450005,0 -11.61000046,5.376 -11.61000046,13.27 0,7.895 5.06499996,13.272 11.61000046,13.272 3.246,0 6.05,-1.383 8.018,-3.752 l 0.688,3.207 h 6.840005 z M 175.927,43.309578 c 0,3.946 2.806,6.41 6.59,6.41 3.84,0 6.595,-2.464 6.595,-6.41 0,-3.9 -2.756,-6.415 -6.594,-6.415 -3.786,0 -6.592,2.514 -6.592,6.413 z m -169.1373795,-0.006 c 0,-3.946 2.803,-6.41 6.5900005,-6.41 3.84,0 6.593,2.464 6.593,6.41 0,3.9 -2.754,6.415 -6.59,6.415 -3.7880005,0 -6.5940005,-2.514 -6.5940005,-6.413 z m 204.2228395,6.415 c -3.787,0 -6.59,-2.514 -6.59,-6.413 0,-3.947 2.803,-6.412 6.59,-6.412 3.837,0 6.59,2.465 6.59,6.412 0,3.9 -2.753,6.414 -6.59,6.414 z m -161.227834,-8.731 h -12.592 c 0.738,-2.91 2.95,-4.49 6.295,-4.49 3.395,0 5.61,1.58 6.297,4.49 z m 78.268004,0 h -12.592 c 0.737,-2.91 2.95,-4.49 6.295,-4.49 3.395,0 5.61,1.58 6.297,4.49 z m -27.695,15.048 6.84,-25.457 h -7.134 l -5.016004,20.622 -5.02,-20.623 h -7.035 l 6.84,25.455 h 10.525004 z m -27.400004,0 h 6.538 v -25.46 h -6.54 v 25.458 z m -18.233,-2.44 -2.508,-5.623 c -2.362,1.233 -4.97,1.973 -7.626,1.973 -3.442,0 -5.853,-1.332 -6.887,-3.8 h 18.397 c 0.197,-0.936 0.297,-1.873 0.297,-3.008 0,-7.894 -5.46,-13.173 -12.79,-13.173 -7.378,0 -12.79,5.33 -12.79,13.272 0,8.09 5.362,13.27 13.676,13.27 3.64,0 7.23,-0.987 10.23,-2.91 z m 156.288834,-23.56 c -7.43,0 -12.938,5.377 -12.938,13.27 0,7.896 5.51,13.272 12.937,13.272 7.43,0 12.94,-5.376 12.94,-13.27 0,-7.895 -5.51,-13.272 -12.938,-13.272 z m -78.13783,23.63 -2.51,-5.625 c -2.363,1.234 -4.97,1.973 -7.627,1.973 -3.443,0 -5.854,-1.33 -6.887,-3.8 h 18.4 c 0.197,-0.936 0.294,-1.873 0.294,-3.007 0,-7.894 -5.46,-13.173 -12.79,-13.173 -7.38,0 -12.79,5.327 -12.79,13.272 0,8.09 5.363,13.27 13.676,13.27 3.64,0.003 7.23,-0.983 10.235,-2.908 z m 62.58037,-10.358 c 0,7.893 -5.51,13.27 -12.938,13.27 -7.43,0 -12.938,-5.377 -12.938,-13.27 0,-7.896 5.51,-13.272 12.937,-13.272 7.43,0 12.94,5.376 12.94,13.27 z m -128.355374,12.727 v -36.757 h -6.542 v 36.755 h 6.542 z m 13.233,-33.108 c 0,-2.368 -1.77,-4.144 -4.082,-4.144 -2.36,0 -4.13,1.776 -4.13,4.144 0,2.368 1.77,4.144 4.132,4.144 2.31,0 4.08,-1.776 4.08,-4.144 z"
     fill="#00ccbc"
     fill-rule="evenodd"
     id="path46"
     sodipodi:nodetypes="cccccssscccccssscccssscccsssccccscccsccccccccccccccccccsccssssccssssssccsccsssccccsssccccccccsssss" />
  <path
     d="m 211.01246,49.718578 c -3.787,0 -6.59,-2.514 -6.59,-6.413 0,-3.947 2.803,-6.412 6.59,-6.412 3.837,0 6.59,2.465 6.59,6.412 0,3.9 -2.753,6.414 -6.59,6.414 z m 0.001,-19.683 c -7.43,0 -12.938,5.377 -12.938,13.27 0,7.896 5.51,13.272 12.937,13.272 7.43,0 12.94,-5.376 12.94,-13.27 0,-7.895 -5.51,-13.272 -12.938,-13.272 z"
     fill="#00ccbc"
     fill-rule="evenodd"
     id="path508"
     sodipodi:nodetypes="csssccssssss" />
  <path
     d="m 137.15331,56.274348 1.26785,-5.28 v -31.474 h 7.32064 v 14.357 c 2.20223,-2.27 5.23142,-3.6 8.80669,-3.6 7.324,0 11.78799,5.13523 11.78799,13.02923 0,7.895 -4.46399,13.51277 -11.78799,13.51277 -3.63234,0 -6.77007,-1.383 -8.9723,-3.752 l -0.76989,3.207 h -7.65411 z M 175.927,43.309578 c 0,3.946 2.806,6.41 6.59,6.41 3.84,0 6.595,-2.464 6.595,-6.41 0,-3.9 -2.756,-6.415 -6.594,-6.415 -3.786,0 -6.592,2.514 -6.592,6.413 z m -15.48574,0.23477 c 0,-3.946 -3.13662,-6.41 -7.37435,-6.41 -4.29704,0 -7.3777,2.464 -7.3777,6.41 0,3.9 3.08178,6.415 7.37434,6.415 4.23885,0 7.37883,-2.514 7.37883,-6.413 z m 50.5712,6.17423 c -3.787,0 -6.59,-2.514 -6.59,-6.413 0,-3.947 2.803,-6.412 6.59,-6.412 3.837,0 6.59,2.465 6.59,6.412 0,3.9 -2.753,6.414 -6.59,6.414 z m -161.227834,-8.731 h -12.592 c 0.738,-2.91 2.95,-4.49 6.295,-4.49 3.395,0 5.61,1.58 6.297,4.49 z m 78.268004,0 h -12.592 c 0.737,-2.91 2.95,-4.49 6.295,-4.49 3.395,0 5.61,1.58 6.297,4.49 z m -27.695,15.048 6.84,-25.457 h -7.134 l -5.016004,20.622 -5.02,-20.623 h -7.035 l 6.84,25.455 h 10.525004 z m -27.400004,0 h 6.538 v -25.46 h -6.54 v 25.458 z m -18.233,-2.44 -2.508,-5.623 c -2.362,1.233 -4.97,1.973 -7.626,1.973 -3.442,0 -5.853,-1.332 -6.887,-3.8 h 18.397 c 0.197,-0.936 0.297,-1.873 0.297,-3.008 0,-7.894 -5.46,-13.173 -12.79,-13.173 -7.378,0 -12.79,5.33 -12.79,13.272 0,8.09 5.362,13.27 13.676,13.27 3.64,0 7.23,-0.987 10.23,-2.91 z m 156.288834,-23.56 c -7.43,0 -12.938,5.377 -12.938,13.27 0,7.896 5.51,13.272 12.937,13.272 7.43,0 12.94,-5.376 12.94,-13.27 0,-7.895 -5.51,-13.272 -12.938,-13.272 z m -78.13783,23.63 -2.51,-5.625 c -2.363,1.234 -4.97,1.973 -7.627,1.973 -3.443,0 -5.854,-1.33 -6.887,-3.8 h 18.4 c 0.197,-0.936 0.294,-1.873 0.294,-3.007 0,-7.894 -5.46,-13.173 -12.79,-13.173 -7.38,0 -12.79,5.327 -12.79,13.272 0,8.09 5.363,13.27 13.676,13.27 3.64,0.003 7.23,-0.983 10.235,-2.908 z m 62.58037,-10.358 c 0,7.893 -5.51,13.27 -12.938,13.27 -7.43,0 -12.938,-5.377 -12.938,-13.27 0,-7.896 5.51,-13.272 12.937,-13.272 7.43,0 12.94,5.376 12.94,13.27 z m -128.355374,12.727 v -36.757 h -6.542 v 36.755 h 6.542 z m 13.233,-33.108 c 0,-2.368 -1.77,-4.144 -4.082,-4.144 -2.36,0 -4.13,1.776 -4.13,4.144 0,2.368 1.77,4.144 4.132,4.144 2.31,0 4.08,-1.776 4.08,-4.144 z"
     fill="#00ccbc"
     fill-rule="evenodd"
     id="path520"
     sodipodi:nodetypes="cccccssscccccssscccssscccsssccccscccsccccccccccccccccccsccssssccssssssccsccsssccccsssccccccccsssss" />
</svg>
